<svg width="150" height="200" xmlns="http://www.w3.org/2000/svg">
  <!-- Background -->
  <rect width="150" height="200" rx="20" fill="#f8f9fa"/>
  
  <!-- Pixel E Grid -->
  <g transform="translate(25, 25)">
    <!-- Row 1 -->
    <rect x="0" y="0" width="18" height="18" rx="2" fill="#0072ce"/>
    <rect x="22" y="0" width="18" height="18" rx="2" fill="#0072ce"/>
    <rect x="44" y="0" width="18" height="18" rx="2" fill="#0072ce"/>
    <rect x="66" y="0" width="18" height="18" rx="2" fill="#0072ce"/>
    <rect x="88" y="0" width="18" height="18" rx="2" fill="#0072ce"/>
    
    <!-- Row 2 -->
    <rect x="0" y="22" width="18" height="18" rx="2" fill="#0072ce"/>
    
    <!-- Row 3 -->
    <rect x="0" y="44" width="18" height="18" rx="2" fill="#0072ce"/>
    
    <!-- Row 4 -->
    <rect x="0" y="66" width="18" height="18" rx="2" fill="#0072ce"/>
    <rect x="22" y="66" width="18" height="18" rx="2" fill="#0072ce"/>
    <rect x="44" y="66" width="18" height="18" rx="2" fill="#0072ce"/>
    <rect x="66" y="66" width="18" height="18" rx="2" fill="#000000"/>
    
    <!-- Row 5 -->
    <rect x="0" y="88" width="18" height="18" rx="2" fill="#0072ce"/>
    
    <!-- Row 6 -->
    <rect x="0" y="110" width="18" height="18" rx="2" fill="#0072ce"/>
    
    <!-- Row 7 -->
    <rect x="0" y="132" width="18" height="18" rx="2" fill="#0072ce"/>
    <rect x="22" y="132" width="18" height="18" rx="2" fill="#0072ce"/>
    <rect x="44" y="132" width="18" height="18" rx="2" fill="#0072ce"/>
    <rect x="66" y="132" width="18" height="18" rx="2" fill="#0072ce"/>
    <rect x="88" y="132" width="18" height="18" rx="2" fill="#0072ce"/>
  </g>
  

</svg>